<svg width="48" height="48" viewBox="0 0 48 48" fill="none" xmlns="http://www.w3.org/2000/svg">
<rect width="48" height="48" rx="8" fill="#FEE5E7"/>
<path fill-rule="evenodd" clip-rule="evenodd" d="M25.0818 16.3654C24.6004 15.5338 23.3997 15.5338 22.9183 16.3654L15.3872 29.3737C14.9047 30.207 15.506 31.25 16.469 31.25H31.5312C32.4941 31.25 33.0954 30.207 32.613 29.3737L25.0818 16.3654ZM21.6201 15.6139C22.6793 13.7843 25.3208 13.7844 26.38 15.6139L33.9111 28.6222C34.9725 30.4555 33.6496 32.75 31.5312 32.75H16.469C14.3505 32.75 13.0276 30.4555 14.089 28.6222L21.6201 15.6139ZM24.0001 20.25C24.4143 20.25 24.7501 20.5858 24.7501 21V25C24.7501 25.4142 24.4143 25.75 24.0001 25.75C23.5858 25.75 23.2501 25.4142 23.2501 25V21C23.2501 20.5858 23.5858 20.25 24.0001 20.25ZM24.0001 29C24.5523 29 25.0001 28.5523 25.0001 28C25.0001 27.4477 24.5523 27 24.0001 27C23.4478 27 23.0001 27.4477 23.0001 28C23.0001 28.5523 23.4478 29 24.0001 29Z" fill="#EF3948"/>
</svg>
