<svg width="48" height="49" viewBox="0 0 48 49" fill="none" xmlns="http://www.w3.org/2000/svg">
<rect y="0.5" width="48" height="48" rx="8" fill="#F4F5F5"/>
<path fill-rule="evenodd" clip-rule="evenodd" d="M24 15.25C18.8914 15.25 14.75 19.3914 14.75 24.5C14.75 29.6086 18.8914 33.75 24 33.75C29.1086 33.75 33.25 29.6086 33.25 24.5C33.25 19.3914 29.1086 15.25 24 15.25ZM13.25 24.5C13.25 18.5629 18.0629 13.75 24 13.75C29.9371 13.75 34.75 18.5629 34.75 24.5C34.75 30.4371 29.9371 35.25 24 35.25C18.0629 35.25 13.25 30.4371 13.25 24.5ZM25 28.5C25 29.0523 24.5523 29.5 24 29.5C23.4477 29.5 23 29.0523 23 28.5C23 27.9477 23.4477 27.5 24 27.5C24.5523 27.5 25 27.9477 25 28.5ZM22.75 22.5C22.75 21.8096 23.3096 21.25 24 21.25C24.6904 21.25 25.25 21.8096 25.25 22.5V22.6213C25.25 22.985 25.1055 23.3338 24.8483 23.591L23.4697 24.9697C23.1768 25.2626 23.1768 25.7374 23.4697 26.0303C23.7626 26.3232 24.2374 26.3232 24.5303 26.0303L25.909 24.6517C26.4475 24.1132 26.75 23.3828 26.75 22.6213V22.5C26.75 20.9812 25.5188 19.75 24 19.75C22.4812 19.75 21.25 20.9812 21.25 22.5V23C21.25 23.4142 21.5858 23.75 22 23.75C22.4142 23.75 22.75 23.4142 22.75 23V22.5Z" fill="#242728"/>
</svg>
