<svg width="16" height="21" viewBox="0 0 16 21" fill="none" xmlns="http://www.w3.org/2000/svg">
<path d="M7.20092 14.9724C7.20092 14.7881 7.19157 14.6037 7.20092 14.4218C7.22764 14.0015 7.16354 13.6611 6.78818 13.3218C6.16837 12.7614 6.29259 11.8126 6.94713 11.2903C7.26178 11.0387 7.67053 10.9098 8.08674 10.9309C8.50295 10.9521 8.89389 11.1215 9.17658 11.4034C9.32077 11.5441 9.43276 11.71 9.50596 11.8914C9.57917 12.0727 9.6121 12.2657 9.60276 12.4589C9.59342 12.6521 9.54198 12.8417 9.45157 13.0163C9.36115 13.1909 9.2336 13.3471 9.07639 13.4755C8.9799 13.5456 8.90389 13.6366 8.85515 13.7405C8.80642 13.8443 8.78652 13.9576 8.79723 14.0703C8.81059 14.6946 8.79723 15.319 8.79723 15.9434C8.79723 16.478 8.48995 16.8135 8.00906 16.8196C7.52817 16.8258 7.20095 16.4842 7.19694 15.9274C7.19962 15.6091 7.20092 15.2908 7.20092 14.9724Z" fill="black" fill-opacity="0.4"/>
<path d="M15.9989 9.6772C15.9989 8.22449 15.0932 7.34206 13.5691 7.26464V5.57473C13.5691 5.57473 13.5691 5.3289 13.5691 5.24041C13.5628 4.94293 13.5261 4.6467 13.4596 4.35554C12.944 2.19369 10.7746 0.445971 7.90928 0.501277C4.74209 0.562729 2.40979 2.66314 2.40444 5.57839C2.40444 6.32441 2.40444 6.4559 2.40444 7.22527C0.738698 7.47107 0 8.27613 0 9.78906C0 11.9226 0 14.055 0 16.1874C0 18.6798 1.98499 20.4963 4.70068 20.5C6.89763 20.5 9.09551 20.5 11.2942 20.5C14.0046 20.5 15.9882 18.6749 15.9922 16.1849C15.9994 14.0161 16.0016 11.8468 15.9989 9.6772ZM4.01275 5.98274C4.03146 5.49113 4.01276 4.98968 4.15703 4.5288C4.74746 2.58694 6.78187 1.54718 9.25043 2.12974C10.8801 2.51442 11.9221 3.80368 11.9982 5.37315V7.25599H4.00741C4.00741 6.59109 3.99005 6.59357 4.01275 5.98274ZM14.3973 16.148C14.3973 17.8785 13.143 19.0251 11.2582 19.0264C9.0728 19.0264 6.88783 19.0264 4.70335 19.0264C2.87731 19.0264 1.61102 17.8613 1.60968 16.1837C1.60968 14.0148 1.60968 11.8436 1.60968 9.66982C1.60968 8.96681 1.87684 8.7247 2.6476 8.7247C4.42867 8.7247 6.21373 8.7247 8.00281 8.7247C9.79189 8.7247 11.577 8.7247 13.358 8.7247C14.1274 8.7247 14.4 8.97053 14.4 9.67108C14.3991 11.8317 14.3982 13.9907 14.3973 16.148Z" fill="black" fill-opacity="0.4"/>
</svg>
