<svg width="18" height="15" viewBox="0 0 18 15" fill="none" xmlns="http://www.w3.org/2000/svg">
<path d="M8.98119 0.501141C7.08647 0.501141 5.1923 0.500557 3.29758 0.501141C1.40985 0.50231 0.00168419 2.03774 0.00114632 4.09724C7.43866e-05 6.37876 -0.000997543 8.66028 0.00168419 10.9418C0.00382996 12.947 1.41789 14.4958 3.25413 14.4976C7.08326 14.5011 10.9124 14.5005 14.742 14.4976C16.3251 14.4964 17.6211 13.3454 17.9365 11.6616C17.9789 11.4349 17.9956 11.1989 17.9961 10.9669C18.0004 8.65619 18.0015 6.34546 17.9977 4.03472C17.9945 2.04942 16.5724 0.505231 14.7447 0.501725C12.8237 0.49822 10.9022 0.501141 8.98119 0.501141ZM15.5805 2.0576C15.5805 2.08331 15.5805 2.1096 15.5805 2.13531C15.5397 2.18263 15.4995 2.23112 15.4577 2.2767C13.4793 4.43143 11.5009 6.58617 9.52192 8.74032C9.17591 9.11658 8.82133 9.11658 8.47425 8.73915C6.49531 6.585 4.51692 4.43026 2.53852 2.27553C2.49399 2.22703 2.45376 2.17328 2.36739 2.06753C2.67102 2.00502 2.92368 1.9092 3.17635 1.90861C7.05911 1.89927 10.9413 1.89927 14.8241 1.90861C15.0762 1.9092 15.3284 2.0056 15.5805 2.0576ZM15.5762 12.8985C15.2924 13.0498 14.9947 13.1012 14.683 13.1006C11.4091 13.0983 8.13468 13.0995 4.86077 13.0995C4.30502 13.0995 3.74927 13.1024 3.19351 13.0977C2.91939 13.0954 2.65707 13.034 2.42801 12.8956C3.77073 11.4332 5.10432 9.9807 6.44596 8.51947C6.4819 8.5557 6.53072 8.60302 6.57739 8.65327C6.93305 9.03946 7.28335 9.4315 7.64437 9.81126C8.10625 10.2968 8.65825 10.4972 9.29822 10.3926C9.73167 10.3219 10.0911 10.1011 10.3974 9.76569C10.7836 9.34328 11.1709 8.92261 11.547 8.51246C12.8956 9.97953 14.2292 11.4314 15.5762 12.8985ZM16.5579 3.09816C16.6131 3.39379 16.7033 3.65379 16.7043 3.91378C16.7151 6.30339 16.7156 8.69241 16.7043 11.082C16.7033 11.3461 16.6099 11.6096 16.5595 11.8737C15.191 10.3833 13.8553 8.92845 12.5298 7.48534C13.8462 6.05158 15.1792 4.5997 16.5579 3.09816ZM5.45408 7.46781C4.11834 8.92203 2.78314 10.3757 1.43023 11.8492C1.38463 11.6032 1.29505 11.3426 1.29397 11.0814C1.28324 8.69241 1.28271 6.30339 1.29451 3.91437C1.29558 3.65087 1.39 3.38854 1.44525 3.104C2.81961 4.60028 4.15213 6.05099 5.45408 7.46781Z" fill="black" fill-opacity="0.4"/>
</svg>
