<svg width="16" height="21" viewBox="0 0 16 21" fill="none" xmlns="http://www.w3.org/2000/svg">
<path d="M15.9266 15.3661C15.8511 14.2291 15.5535 13.1205 15.0522 12.1087C14.4261 10.9097 13.4849 10.2002 12.2593 10.0124C12.0227 9.96153 11.7788 9.96189 11.5424 10.0134C11.306 10.065 11.0822 10.1666 10.8848 10.3121C10.7263 10.436 10.5564 10.5459 10.3769 10.6619L10.2547 10.7398C8.7427 11.721 7.27082 11.721 5.755 10.7398C5.65764 10.6779 5.56409 10.6119 5.46482 10.54C5.29682 10.4241 5.12304 10.3041 4.94168 10.2002C4.74595 10.0726 4.52427 9.9953 4.29456 9.97441C3.66816 9.96229 3.04909 10.1178 2.49612 10.4261C1.68284 10.8817 1.10443 11.6112 0.67297 12.7203C0.159424 14.0452 -0.0562966 15.5181 0.0124308 17.2327C0.0241404 17.9509 0.261395 18.6451 0.687512 19.2082C1.11363 19.7712 1.70493 20.1719 2.37018 20.3482C2.52482 20.3961 2.68321 20.4261 2.83403 20.458C2.90276 20.47 2.97155 20.484 3.03837 20.5H12.9484H12.9752L13.0229 20.4841C13.0351 20.478 13.0479 20.4733 13.0611 20.47C14.7984 20.2702 15.9781 18.9173 15.9991 17.1027C16.005 16.5229 15.9808 15.9432 15.9266 15.3661ZM9.40326 18.9632H8.00201H7.8111H3.53857C3.11395 18.9864 2.69152 18.8854 2.31863 18.6715C2.06251 18.5211 1.85015 18.3008 1.70424 18.034C1.55832 17.7672 1.48426 17.464 1.49002 17.1567C1.45375 15.6459 1.6218 14.4449 2.01698 13.3797C2.1782 12.9184 2.4291 12.4972 2.75387 12.1427C3.13144 11.7539 3.63894 11.5346 4.16853 11.5312C4.20281 11.5453 4.23543 11.5634 4.26585 11.5851C4.40331 11.6711 4.53702 11.763 4.67256 11.8529C4.94347 12.0434 5.22451 12.2176 5.51441 12.3745C7.38723 13.3398 9.25625 13.2238 11.0699 12.0348L11.3295 11.8589C11.4708 11.763 11.614 11.6591 11.7591 11.5771C11.8042 11.5518 11.8548 11.5387 11.9061 11.5392C12.7193 11.5851 13.3302 12.0268 13.7712 12.8862C14.1263 13.5716 14.3345 14.355 14.449 15.4301C14.4999 15.9306 14.5253 16.4336 14.5254 16.9369C14.5349 18.1859 13.8324 18.9352 12.6469 18.9552C11.5663 18.9692 10.4666 18.9652 9.40326 18.9632Z" fill="black" fill-opacity="0.4"/>
<path d="M7.89653 9.5H7.93486C8.52544 9.4994 9.1101 9.38239 9.6555 9.15569C10.2009 8.92899 10.6963 8.59707 11.1135 8.17878C11.5307 7.76049 11.8615 7.26402 12.087 6.71782C12.3124 6.17163 12.4281 5.58636 12.4275 4.99541C12.4269 4.40446 12.31 3.81944 12.0835 3.2737C11.8569 2.72797 11.5251 2.23224 11.1071 1.8148C10.6891 1.39736 10.193 1.06633 9.64712 0.84074C9.10126 0.615147 8.51626 0.499403 7.92568 0.500002C7.03243 0.499807 6.15943 0.765736 5.41784 1.26397C4.67625 1.76219 4.09975 2.47016 3.76181 3.29751C3.42386 4.12487 3.33976 5.03411 3.52029 5.90945C3.70083 6.7848 4.13779 7.58659 4.77546 8.21249C5.60451 9.03808 6.72688 9.50106 7.89653 9.5ZM4.84301 4.99817C4.84157 4.59293 4.92023 4.19137 5.07455 3.81669C5.22886 3.44201 5.45577 3.10163 5.74215 2.81508C6.02852 2.52852 6.3687 2.30148 6.74314 2.14707C7.11759 1.99265 7.5189 1.91394 7.92389 1.91539C8.74148 1.91539 9.52556 2.24034 10.1037 2.81882C10.6818 3.3973 11.0066 4.18186 11.0066 4.99996C11.0066 5.81805 10.6818 6.6027 10.1037 7.18118C9.52556 7.75966 8.74148 8.08461 7.92389 8.08461C7.10675 8.08268 6.32371 7.75674 5.74624 7.17824C5.16878 6.59973 4.84398 5.81582 4.84301 4.99817Z" fill="black" fill-opacity="0.4"/>
</svg>
